<svg xmlns="http://www.w3.org/2000/svg" width="1000" height="650"><rect width="1000" height="650" x="0" y="0" fill="#FFFFFF" id="background"/><g transform="translate(500,325)" id="chord_diagram"><g><g><path fill="#1f77b4" d="M211.90724018174086,-175.27213571631398A275,275,0,0,1,260.45770754899866,-88.24274802112808L250.9865181835805,-85.03392082035978A265,265,0,0,0,204.20152235695028,-168.89860350844802Z"/></g><g><path fill="#cccccc" d="M-273.4352743456336,29.29421006834077A275,275,0,0,1,-10.374895782687352,-274.80422401684143L-9.997626845135084,-264.81134314350174A265,265,0,0,0,-263.4921734603379,28.22896606585565Z"/></g><g><path fill="#cccccc" d="M-41.351988903293275,271.87315611097375A275,275,0,0,1,-272.1354327595958,39.58921869331996L-262.23959884106506,38.1496107408356A265,265,0,0,0,-39.84828021590079,261.98685952512017Z"/></g><g><path fill="#ff7f0e" d="M263.60140918729115,-78.35366663069634A275,275,0,0,1,274.2171748181701,20.73501952594006L264.24564118841846,19.981018815905877A265,265,0,0,0,254.01590339866237,-75.5044423895801Z"/></g><g><path fill="#2ca02c" d="M1.6838893488276108e-14,-275A275,275,0,0,1,49.827859185846386,-270.4481178506433L48.01593703363379,-260.61364083789266A265,265,0,0,0,1.622657008870243e-14,-265Z"/></g><g><path fill="#d62728" d="M59.99555351022214,-268.37573206048654A275,275,0,0,1,107.63008259001998,-253.06276952895595L103.71626140492835,-243.8604870006303A265,265,0,0,0,57.81389701894133,-258.6166145310143Z"/></g><g><path fill="#9467bd" d="M273.23968825950624,31.065620223131784A275,275,0,0,1,244.22707581021606,126.40464960273802L235.34609123529913,121.80811688991118A265,265,0,0,0,263.30369959552417,29.93596130592699Z"/></g><g><path fill="#8c564b" d="M239.28435267583032,135.52858947288155A275,275,0,0,1,175.27213571631404,211.90724018174083L168.89860350844808,204.20152235695025A265,265,0,0,0,230.5831034876183,130.60027712841313Z"/></g><g><path fill="#e377c2" d="M167.15275532659615,218.36885397585223A275,275,0,0,1,78.35366663069652,263.6014091872911L75.50444238958029,254.01590339866235A265,265,0,0,0,161.07447331471994,210.42816837673033Z"/></g><g><path fill="#7f7f7f" d="M117.1007315903997,-248.8220622472878A275,275,0,0,1,160.2470659547153,-223.48574418272213L154.4198999199984,-215.35898984880498A265,265,0,0,0,112.84252316893063,-239.77398725647734Z"/></g><g><path fill="#bcbd22" d="M68.35302330485605,266.36978846161554A275,275,0,0,1,-31.065620223131464,273.2396882595063L-29.935961305926682,263.3036995955242A265,265,0,0,0,65.8674588210431,256.6836143357386Z"/></g><g><path fill="#17becf" d="M168.56440696535645,-217.28101781890126A275,275,0,0,1,205.14390749101133,-183.1419591991944L197.68412903679274,-176.48225159195096A265,265,0,0,0,162.43479216661623,-209.37988989821395Z"/></g></g><g fill-opacity="0.7"><path fill="#1f77b4" d="M206.56929329197203,-164.39320870661064A264,264,0,0,1,228.083718967408,-132.94290933327903Q0,0,-47.93147523728151,-235.16499246609362L-33.4045482840847,-257.8451786517178L-13.577652511820059,-239.61562418228965Q0,0,206.56929329197203,-164.39320870661064Z"/><path fill="#1f77b4" d="M232.93686629488658,-124.24337535948602A264,264,0,0,1,248.3966293568216,-89.41540428902502Q0,0,-228.7210528253412,72.70955916843039L-252.81966294057963,60.6812823744827L-236.805881203158,39.02530752724219Q0,0,232.93686629488658,-124.24337535948602Z"/><path fill="#ff7f0e" d="M254.43146214704188,-70.43174759807111A264,264,0,0,1,261.92055970056253,-33.06993205532893Q0,0,-89.74816506824955,-222.58766108408219L-79.57116532614117,-247.5246041278319L-56.769396898674884,-233.18926985554188Q0,0,254.43146214704188,-70.43174759807111Z"/><path fill="#ff7f0e" d="M262.9817209497616,-23.16494002370218A264,264,0,0,1,263.57718660051864,14.935417763001197Q0,0,-211.76078754080578,112.94852305407856L-237.63994038015093,105.48582244130398L-225.81511759711034,81.28673117184145Q0,0,262.9817209497616,-23.16494002370218Z"/><path fill="#2ca02c" d="M4.980836534744738,-263.9530095820355A264,264,0,0,1,42.92783827996581,-260.4864693234739Q0,0,-128.59377802276902,-202.64165478457488L-123.10361097145896,-229.00982722535662L-98.08181325372738,-219.04327862059807Q0,0,4.980836534744738,-263.9530095820355Z"/><path fill="#d62728" d="M62.44633658854154,-256.5081968410962A264,264,0,0,1,98.72298157507387,-244.84642719249064Q0,0,-187.79026662906526,149.44837155146448L-214.59324325542704,146.79829681953777L-207.3488354249161,120.8571903029814Q0,0,62.44633658854154,-256.5081968410962Z"/><path fill="#9467bd" d="M261.70074646244353,34.76664063437596A264,264,0,0,1,253.96967910094548,72.07913774014494Q0,0,-163.18234572128716,-175.98727807684938L-162.56076113094161,-202.9137721805224L-136.14727066386223,-197.6459478228204Q0,0,261.70074646244353,34.76664063437596Z"/><path fill="#9467bd" d="M251.06955289811512,81.6093107895207A264,264,0,0,1,236.70571846701603,116.90339107576712Q0,0,-157.60302453556642,181.00079186910108L-184.44252319727096,183.25107267523475L-182.01835352428137,156.4267208002192Q0,0,251.06955289811512,81.6093107895207Z"/><path fill="#8c564b" d="M227.21737921718423,134.41823753373012A264,264,0,0,1,205.49958844245913,165.7284500319119Q0,0,-192.36882755377718,-143.50691337209204L-196.63640273204052,-170.10033839061802L-169.7056274847719,-169.70562748477093Q0,0,227.21737921718423,134.41823753373012Z"/><path fill="#8c564b" d="M199.100871056011,173.3633269891233A264,264,0,0,1,172.0693928802408,200.22018887670978Q0,0,-122.19839775793622,206.56125383380402L-148.18590765603153,213.63739553776182L-150.6622273017378,186.81780767496306Q0,0,199.100871056011,173.3633269891233Z"/><path fill="#e377c2" d="M156.48295731800513,212.62427911461893A264,264,0,0,1,124.24337535948614,232.9368662948865Q0,0,-215.18701678819662,-106.27581006887876L-224.20247537670542,-131.65580137220616L-197.64594782282117,-136.14727066386112Q0,0,156.48295731800513,212.62427911461893Z"/><path fill="#e377c2" d="M115.36694052051541,237.4583522113633A264,264,0,0,1,79.98051508527314,251.59315810787544Q0,0,-82.7484422135108,225.28358864159915L-107.02365729409605,236.9513384207734L-114.31848869346989,211.02436623016072Q0,0,115.36694052051541,237.4583522113633Z"/><path fill="#7f7f7f" d="M116.90339107576713,-236.70571846701603A264,264,0,0,1,149.76199773024777,-217.41054260510288Q0,0,-230.8815264554051,-65.52648885467673L-244.34641532676082,-88.85285204742783L-219.0432786205986,-98.08181325372612Q0,0,116.90339107576713,-236.70571846701603Z"/><path fill="#bcbd22" d="M60.78269760445793,256.9075002251297A264,264,0,0,1,23.164940023702428,262.9817209497616Q0,0,-238.9327961306967,-22.607939604637476L-256.4013655591059,-43.10846482334684L-233.1892698555422,-56.76939689867357Q0,0,60.78269760445793,256.9075002251297Z"/><path fill="#bcbd22" d="M13.22696516365423,263.66844216280316A264,264,0,0,1,-24.868733565101415,262.8260757437663Q0,0,-40.55913280000361,236.5480009353528L-62.318431839827085,252.42110263015815L-74.1902825359276,228.24504808919565Q0,0,13.22696516365423,263.66844216280316Z"/><path fill="#17becf" d="M165.7284500319119,-205.49958844245913A264,264,0,0,1,193.58600588453476,-179.50058029341542Q0,0,-239.07429177251052,21.059036385184196L-259.9682517990207,4.06301077539277L-239.6156241822897,-13.577652511818709Q0,0,165.7284500319119,-205.49958844245913Z"/></g><g><g id="ANTI-ASIAN" transform="rotate(-29.155527114516985) translate(275,0)"><text x="8" dy="0.35em" style="font-family: Arial, sans-serif; font-size: 10px; fill: black; font-weight: bold;">ANTI-ASIAN (2)</text></g><g id="MALE" transform="rotate(220.86144711000907) translate(275,0)"><text x="8" dy="0.35em" transform="rotate(180) translate(-16)" text-anchor="end" style="font-family: Arial, sans-serif; font-size: 10px; fill: black; font-weight: bold;">MALE (9)</text></g><g id="FEMALE" transform="rotate(135.1856568845814) translate(275,0)"><text x="8" dy="0.35em" transform="rotate(180) translate(-16)" text-anchor="end" style="font-family: Arial, sans-serif; font-size: 10px; fill: black; font-weight: bold;">FEMALE (7)</text></g><g id="ANTI-BLACK" transform="rotate(-6.115000892695448) translate(275,0)"><text x="8" dy="0.35em" style="font-family: Arial, sans-serif; font-size: 10px; fill: black; font-weight: bold;">ANTI-BLACK (2)</text></g><g id="ANTI-FEMALE" transform="rotate(-84.78039466636615) translate(275,0)"><text x="8" dy="0.35em" style="font-family: Arial, sans-serif; font-size: 10px; fill: black; font-weight: bold;">ANTI-FEMALE (1)</text></g><g id="ANTI-ISLAMIC(MUSLIM)" transform="rotate(-72.17907911181231) translate(275,0)"><text x="8" dy="0.35em" style="font-family: Arial, sans-serif; font-size: 10px; fill: black; font-weight: bold;">ANTI-ISLAMIC(MUSLIM) (1)</text></g><g id="ANTI-JEWISH" transform="rotate(16.92552532912609) translate(275,0)"><text x="8" dy="0.35em" style="font-family: Arial, sans-serif; font-size: 10px; fill: black; font-weight: bold;">ANTI-JEWISH (2)</text></g><g id="ANTI-LGBT(MIXED GROUP)" transform="rotate(39.96605155094761) translate(275,0)"><text x="8" dy="0.35em" style="font-family: Arial, sans-serif; font-size: 10px; fill: black; font-weight: bold;">ANTI-LGBT(MIXED GROUP) (2)</text></g><g id="ANTI-MALE HOMOSEXUAL(GAY)" transform="rotate(63.006577772769106) translate(275,0)"><text x="8" dy="0.35em" style="font-family: Arial, sans-serif; font-size: 10px; fill: black; font-weight: bold;">ANTI-MALE HOMOSEXUAL(GAY) (2)</text></g><g id="ANTI-TRANSGENDER" transform="rotate(-59.57776355725849) translate(275,0)"><text x="8" dy="0.35em" style="font-family: Arial, sans-serif; font-size: 10px; fill: black; font-weight: bold;">ANTI-TRANSGENDER (1)</text></g><g id="ANTI-WHITE" transform="rotate(86.04710399459066) translate(275,0)"><text x="8" dy="0.35em" style="font-family: Arial, sans-serif; font-size: 10px; fill: black; font-weight: bold;">ANTI-WHITE (2)</text></g><g id="OTHER" transform="rotate(-46.97644800270467) translate(275,0)"><text x="8" dy="0.35em" style="font-family: Arial, sans-serif; font-size: 10px; fill: black; font-weight: bold;">OTHER (1)</text></g></g></g></svg>
