<svg xmlns="http://www.w3.org/2000/svg" width="805" height="600"><rect width="805" height="600" x="0" y="0" fill="#FFFFFF" id="background"/><g transform="translate(50,50)" id="visualization"><clipPath id="plotClipPath"><rect x="0" y="0" width="705" height="500"/></clipPath><g id="viz" clip-path="url(#plotClipPath)"><g><path fill="rgb(232, 203, 198)" stroke="rgb(182, 154, 149)" stroke-opacity="1" d="M711.3393779364819,50L714,49.545401114175974L718,48.367297427272376L722,46.475678129688205L722.7095088836078,46L726,43.995642951542564L728.1507451554423,42L730,39.485713905128506L731.1139673174829,38L733.1597431326916,34L734,31.44703495609167L734.4934508054434,30L735.3401103925722,26L735.735680759678,22L735.735680759678,18L735.3401103925722,14L734.4934508054434,10L734,8.55296504390833L733.1597431326916,6L731.1139656098799,2L730,0.7080767898749869L727.6521815831908,-2L726,-3.7093058778635353L722.7095088836078,-6L722,-6.475677988711247L718,-8.367296549387973L714,-9.545400221798133L711.3393759634196,-10L710,-10.245797611478054L706,-10.551185215458112L702,-10.450511120813402L698.5248736512127,-10L698,-9.93739385620259L694,-9.029081236749327L690,-7.5302506636390945L687.3309266591214,-6L686,-5.224259501180356L682.5518327543932,-2L682,-1.4366926202294579L678.8991816197893,2L678,3.743353494703584L676.8400305736657,6L675.4875764379336,10L674.6866829744529,14L674.3124943007842,18L674.3124943007842,22L674.6866829744529,26L675.4875764379336,30L676.8400302483508,34L678,36.256647736523135L678.8991807471944,38L682,41.95219725285288L682.0397276751409,42L686,45.32122708777315L687.3309266591214,46L690,47.53025109367698L694,49.02908123674932L698,49.93739385620259L698.5248736512127,50L702,50.4505111208134L706,50.55118536201695L710,50.245797611478054ZM54.925799907658444,330L58,329.37513199025943L62,328.0328702536228L65.80290936265263,326L66,325.90745045039637L70,323.1785984689837L71.40027654892626,322L74,319.02943304060403L74.83462808761672,318L77.23709525337108,314L78,312.24047282548366L78.98014414058196,310L80.26523928641103,306L81.16674400074254,302L81.78527106208733,298L82,295.881080102608L82.21065229323472,294L82.45894573318495,290L82.32729079152207,286L82,283.44969095240145L81.83627503167335,282L80.81541594600418,278L79.63874100364265,274L78.25425616920623,270L78,269.3431181272654L76.76785916704247,266L74.97040571731227,262L74,260.196156122254L72.82285719407966,258L70.1004559770872,254L70,253.87665927781524L66.60212327829296,250L66,249.4549159141784L62,246.26495531890816L61.603170500361216,246L58,243.5584419935176L54.434200648195684,242L54,241.79448232852093L50,240.46939319363122L46,239.65949686927678L42,239.24347987134786L38,239.16830621416693L34,239.4296786681693L30,240.0712212233572L26,241.2020649645097L24.156203280543323,242L22,242.8879036653832L18,245.42314357902393L17.318940964078408,246L14,248.98418764498018L12.99160759498136,250L10.10614092615306,254L10,254.19720858410278L7.9811363457093165,258L6.507432284409106,262L6,263.887156530538L5.403029039688306,266L4.584856593711436,270L4.036387706911398,274L3.7046723199588882,278L3.5573747294757823,282L3.853845768349842,286L4.532075137347334,290L5.693356963334949,294L6,294.9585143711455L6.905190640441006,298L8.294048997524598,302L9.984674355647499,306L10,306.03219143259156L11.849242778651188,310L14,313.59443870354505L14.245644141609361,314L17.203393279794028,318L18,318.8582106410345L21.25602440323634,322L22,322.57590688623117L26,325.3138408517896L27.409321406417888,326L30,327.46183253847045L34,328.96321268606255L38,329.9101655534861L38.64147972667304,330L42,330.55192230941543L46,330.81305187361323L50,330.7061740598657L54,330.21214199571796ZM287.8651219180683,358L290,357.10335139344596L294,354.5265347888651L294.57440183261065,354L298,350.57440183261065L298.5265349533967,350L301.10335139344596,346L302,343.8651219180683L302.79608833753304,342L303.8997608032016,338L304.50310253075475,334L304.69537645873515,330L304.50310253075475,326L303.8997608032016,322L302.79608833753304,318L302,316.1348780819317L301.10335139344596,314L298.5265349533967,310L298,309.42559816738935L294.57440183261065,306L294,305.4734652111349L290,302.89664860655404L287.8651219180683,302L286,301.20391166246696L282,300.1002386964143L278,299.49689746924525L274,299.30462354126485L270,299.49689746924525L266,300.1002386964143L262,301.20391166246696L260.1348780819317,302L258,302.89664860655404L254,305.4734652111349L253.42559816738935,306L250,309.42559816738935L249.47346504660328,310L246.89664860655404,314L246,316.1348780819317L245.20391166246696,318L244.10023919679838,322L243.49689746924525,326L243.30462354126485,330L243.49689746924525,334L244.10023919679838,338L245.20391166246696,342L246,343.8651219180683L246.89664860655404,346L249.47346504660328,350L250,350.57440183261065L253.42559816738935,354L254,354.5265347888651L258,357.10335139344596L260.1348780819317,358L262,358.79608833753304L266,359.8997613035857L270,360.50310253075475L274,360.69537645873515L278,360.50310253075475L282,359.8997613035857L286,358.79608833753304ZM68.77782207080165,438L70,437.5342189909847L74,435.234451030459L75.45889699297686,434L78,431.6899065072482L79.58686329560098,430L82,426.181316367394L82.11173005700905,426L83.85565302829673,422L84.92949770839462,418L85.51653208562311,414L85.70360969375756,410L85.51653208562311,406L84.92949770839462,402L83.85565302829673,398L82.11173005700905,394L82,393.818683632606L79.58686329560098,390L78,388.3100934927518L75.45889699297686,386L74,384.765548969541L70,382.4657810090153L68.77782207080165,382L66,380.91556517318253L62,379.94553641338155L58,379.448430057335L54,379.3522956073766L50,379.6439304312193L46,380.3640903214462L42,381.62268995023186L41.19255611998287,382L38,383.4810821202683L34.49279798412785,386L34,386.37008536294724L30.44043367459058,390L30,390.66134949822265L27.842717586833103,394L26.188227435709322,398L26,398.7040366797565L25.07453210603542,402L24.453952280324998,406L24.256185094896153,410L24.453952280324998,414L25.07453210603542,418L26,421.2959633202435L26.188227435709322,422L27.842717586833103,426L30,429.33865050177735L30.44043367459058,430L34,433.62991463705276L34.49279798412785,434L38,436.5189178797317L41.19255611998287,438L42,438.4205435054796L46,439.7738153196199L50,440.5033235954615L54,440.76978903324516L58,440.63678469502133L62,440.1023809542134L66,439.10096586584547ZM570.3831774317845,458L574,456.18938125460477L576.8904469278114,454L578,453.1207776425773L580.7723392178949,450L582,447.9813764876196L583.3925290883469,446L585.4077631090292,442L586,440.36562032147424L586.9776384685385,438L588.2124939763598,434L589.1319842220896,430L589.4644190568083,426L590,423.5122042237178L590.5755371740235,422L592.9113195864942,418L594,416.82374921592816L598,416.36449017028394L602,417.77235919329513L602.3392067571078,418L606,419.851079555503L609.544216066935,422L610,422.2074221274095L614,424.4341892845206L617.6656355244729,426L618,426.16942645285303L622,427.9299685028894L626,429.420723948024L629.2320514767299,430L630,430.1417205840775L634,430.4505111208134L638,430.3487213960951L640.6751263487873,430L642,429.83232082657076L646,428.85648993575256L650,427.22458300121195L651.9792896620231,426L654,425.017164535364L658,422.0458399546835L658.0539571668664,422L662,418.0032352588949L662.0030393120003,418L665.3919256717728,414L666,413.2133390897758L668.5525581579053,410L670,408.1121176692574L671.7063433571103,406L674,403.19212288607207L675.1350641005392,402L678,399.2049409704285L679.6042473533216,398L682,396.4103325537606L686,394.73636214789406L688.1509006382012,394L690,393.45070879694975L694,392.5684871512627L698,391.9577562878585L702,391.5899225921229L706,391.13279893401733L710,390.4505111208134L711.9306279613604,390L714,389.545401114176L718,388.3672974272724L722,386.4756781296882L722.7095088836078,386L726,383.99564295154255L728.1507451554423,382L730,379.48571390512853L731.1139673174829,378L733.1597431326916,374L734,371.44703495609167L734.4934508054434,370L735.2384397517054,366L735.735680759678,362L736.0211934857792,358L736.114328311133,354L736.021192973528,350L735.735680759678,346L735.2384397517054,342L734.1551650859853,338L734,337.1059291937818L733.4983380318838,334L733.2740189182565,330L733.3868751217582,326L734,323.7364416665616L734.4934508054434,322L735.5400810503279,318L736.4771162616671,314L737.3209148189876,310L738,306.46325208805115L738.0956659228144,306L738.8799960466104,302L739.5964205197041,298L740.3161009140839,294L740.9974354148806,290L741.6381715687262,286L742,284.1017135791052L742.6043629261812,282L743.0661377895483,278L743.5220101823818,274L743.9680125674795,270L744.3421114153566,266L744.8180577432987,262L745.3714376477624,258L745.9781973249482,254L746,253.92355436995172L747.105221577359,250L748.2458476007796,246L749.4651789821964,242L750,240.2376663587312L750.6931590663393,238L752.1384859110575,234L753.5388890443058,230L754,228.6911216580849L754.9746324455874,226L756.3486263688693,222L757.4654809521536,218L758,215.79653436827988L758.4260252576242,214L759.2770692401585,210L759.8290489255326,206L760.2264652519877,202L760.4675577483242,198L760.5880699552444,194L760.5880699552444,190L760.4675577483242,186L760.211073095263,182L759.7647322865648,178L759.1102231251851,174L758.1354472198612,170L758,169.5855837936811L756.761357478263,166L754.9620475630359,162L754,160.30731827153267L752.4757770283503,158L750,154.92327315212077L749.0926153984993,154L746,151.19647938421812L744.3104497896318,150L742,148.44496075482152L738.8799960466104,146L738,145.36239350975356L734,142.89479466765115L732.1910468279673,142L730,140.89795972451483L726,139.14472524096163L722,138.1243233938764L721.2842459073905,138L718,137.2932043022595L714,136.7472534688615L710,136.43466950665132L706,136.30804583410693L702,136.34978838779253L698,136.56559784725962L694,136.9865241637849L690,137.6811038075334L688.7491958604485,138L686,138.57661691155107L682,140.01707317346862L678,141.92667209814067L677.8610877775209,142L674,144.02743458158335L671.1221586899113,146L670,146.81871781495525L666.4047375838635,150L666,150.40588476288372L662.8535887030927,154L662,155.18130594991118L660.1026267785188,158L658.0418915577502,162L658,162.0978317611053L656.286185920404,166L654.8868866479826,170L654,173.69326881389597L653.9156804865542,174L653.0126401324547,178L652.3238896370756,182L651.8192870499511,186L651.4299283343901,190L651.1252253319914,194L650.8858447014718,198L650.6889475675472,202L650.5309546135713,206L650.3760608128157,210L650.3846649717784,214L650.4656736709302,218L650.6341130754873,222L650.9108461660362,226L651.2734523363772,230L651.7559637969199,234L652.3838889959267,238L653.1593549878238,242L654,245.226388232484L654.1797065207244,246L655.3256014432652,250L656.8999562671671,254L658,256.87244237290946L658.3979210650614,258L659.8030245943437,262L661.2566972710317,266L662,268.1252927563056L662.602177513472,270L663.876619311483,274L665.1260161608174,278L666,281.01314386498825L666.2627181595445,282L667.6174486496928,286L668.7548001190714,290L669.7417919609856,294L670,295.3843425932461L670.4491533950004,298L670.7004468692775,302L670.6800631646778,306L670.312054237408,310L670,311.5715850057176L669.3839355429336,314L667.5592629185228,318L666,320.07329972094783L664.0279422339834,322L662,323.39201317442314L658,325.44516747677204L656.6612314801088,326L654,326.8652384552021L650,328.04663069963925L646,329.27970630628187L643.2624368256063,330L642,330.30549009888887L638,331.0242504720113L634,332.0419554539409L630,333.4550481104183L628.8173652672042,334L626,335.28853857859883L622,336.73902889862416L618,337.63886847886613L614,337.8279107327012L610,337.2700809575313L606,336.06937984789784L602,334.0206285577403L601.9478555981145,334L598,332.40745246356715L594,331.2408134785065L590,330.4046094502291L587.2292719573228,330L586,329.80609559139873L582,329.3988903483313L578,329.3988903483313L574,329.80609559139873L573.0780448436274,330L570,330.60632458035974L566,331.9231875287407L562.0391083149925,334L562,334.0206285577403L558,337.63886847886613L557.6388684788661,338L554.0206285577402,342L554,342.03910831499246L551.9231875287408,346L550.6063245803598,350L550,353.07804484362737L549.8060955388319,354L549.3988901889344,358L549.3988901889344,362L549.8060955388319,366L550,368.0923802480693L550.1651669869027,370L550.4971922631054,374L550.8455506802609,378L551.2453242144317,382L551.7640933621207,386L550.6030503178588,390L550,390.88826267006436L547.6523690680107,394L546,395.40142306204194L543.0618365260975,398L542,398.75154114949277L538.163560192868,402L538,402.12523098070454L534.5676267245212,406L534,406.65426911382843L531.2101645115501,410L530,412.09776429614294L528.9022544222414,414L527.311427854338,418L526.305490251347,422L526,424.13972492912796L525.7125858697199,426L525.4990135391062,430L525.7025975421964,434L526,435.8959386239894L526.305490251347,438L527.3510746651629,442L529.0491042481302,446L530,447.5207925341841L531.593776807734,450L534,452.5265349533968L535.5375288278377,454L538,456.1783395552437L541.6180200210132,458L542,458.19219115254225L546,459.5822124574561L550,460.40535464643506L554,460.7899370630929L558,460.7899370630929L562,460.40535464643506L566,459.5822124574561L570,458.19219115254225ZM202.92195515637263,470L206,469.3936754196402L210,468.07681247125925L213.96089168500754,466L214,465.98195001569616L218,463.2960875249307L219.2960871627343,462L221.9819500156961,458L222,457.9608916850075L224.0768124712593,454L225.39367541964026,450L226,446.92195515637263L226.19390446116807,446L226.6011098110656,442L226.6011098110656,438L226.19390446116807,434L226,433.07804484362737L225.39367541964026,430L224.0768124712593,426L222,422.03910831499246L221.9819500156961,422L218.81599047186114,418L218,417.0901848660699L214,414.0206285577403L213.96089168500754,414L210,411.9231875287407L206,410.60632458035974L202.92195515637263,410L202,409.80609559139873L198,409.3988903483313L194,409.3988903483313L190,409.80609559139873L189.07804484362734,410L186,410.60632458035974L182,411.9231875287407L178.0391083149925,414L178,414.0206285577403L174,417.63886847886613L173.63886847886613,418L170.02062855774028,422L170,422.03910831499246L167.92318752874073,426L166.60632458035974,430L166,433.07804484362737L165.8060955388319,434L165.39889018893442,438L165.39889018893442,442L165.8060955388319,446L166,446.92195515637263L166.60632458035974,450L167.92318752874073,454L170,457.9608916850075L170.02062855774028,458L173.09018486606985,462L174,462.81599047186114L178,465.98195001569616L178.0391083149925,466L182,468.07681247125925L186,469.3936754196402L189.07804484362734,470L190,470.19390446116813L194,470.6011098110656L198,470.6011098110656L202,470.19390446116813ZM452.7778220708017,498L454,497.53421899098464L458,495.234451030459L459.45889699297686,494L462,491.6899065072482L463.586863295601,490L466,486.18131636739406L466.111730057009,486L467.85565302829673,482L468.9294977083946,478L469.5165320856231,474L469.7036096937576,470L469.5165320856231,466L468.9294977083946,462L467.85565302829673,458L466.111730057009,454L466,453.81868363260594L463.586863295601,450L462,448.3100934927518L459.45889699297686,446L458,444.765548969541L454,442.4657810090153L452.7778220708017,442L450,440.91556517318253L446,439.94553641338155L442,439.448430057335L438,439.3522956073766L434,439.6439304312193L430,440.3640903214462L426,441.62645512340623L425.19966532727517,442L422,443.4810821202683L418.4520571122368,446L418,446.33307759268445L414.27866451617143,450L414,450.39243131368426L411.4326986504019,454L410,456.90011152903605L409.4136797110649,458L407.81934466286236,462L406.651161213487,466L406,469.0918142840029L405.7454643785186,470L404.95705506586245,474L404.4327879233021,478L404.30128955406855,482L406,484.89797838867844L406.52424458256525,486L410,489.0537516368436L410.93387886637777,490L414,491.87980864747567L417.2394214459362,494L418,494.44402324792054L422,496.51891716565115L425.6931880257536,498L426,498.1239354822129L430,499.63590967855384L434,500.35606956878064L438,500.6477043926234L442,500.55156994266497L446,500.05446358661845L450,499.0844348268175ZM22.786421330661923,530L26,529.3679445342997L30,528.0510820744539L33.91665411586065,526L34,525.9619326310034L38,523.3007103235376L39.31168747157123,522L41.981950015696114,518L42,517.9608916850075L44.07681247125929,514L45.393675419640246,510L46,506.92195515637263L46.1939044611681,506L46.601109811065584,502L46.601109811065584,498L46.1939044611681,494L46,493.07804484362737L45.393675419640246,490L44.07681247125929,486L42,482.0391083149925L41.981950015696114,482L38.81599047186114,478L38,477.0901848660699L34,474.0206285577402L33.96089168500751,474L30,471.76803592556394L26,470.417787966599L23.87445971256375,470L22,469.5907441365024L18,469.2105998018534L14,469.26157417743934L10,469.72381579005105L8.770790493191356,470L6,470.5683003352681L2,471.90864993966886L-1.9608916850075175,474L-2,474.0206285577402L-6,477.63886847886613L-6.361131521133871,478L-9.979371442259726,482L-10,482.0391083149925L-12.07681247125928,486L-13.393675419640246,490L-14,493.07804484362737L-14.193904461168103,494L-14.60110981106559,498L-14.60110981106559,502L-14.193904461168103,506L-14,506.92195515637263L-13.393675419640246,510L-12.07681247125928,514L-10,517.9608916850075L-9.979371442259726,518L-6.927643682536846,522L-6,522.8250177138482L-2,525.9619326310034L-1.916654115860652,526L2,528.0510820744539L6,529.3679445342997L9.213578669338077,530L10,530.1651465180333L14,530.5723505658354L18,530.5723505658354L22,530.1651465180333ZM366.78642133066194,530L370,529.3679445342997L374,528.0510820744539L377.93905912806713,526L378,525.9723959447922L382,523.3674969767628L383.4247520829311,522L386,518.3787805611134L386.30309831301975,518L388.6945820955676,514L390,510.89630447842444L390.4202767467218,510L391.8407214805032,506L392.90648971160823,502L393.7012649426632,498L394,495.7384278999208L394.3648238179725,494L394.8806586215265,490L394,486.4672446647112L393.90457675559486,486L391.005785277378,482L390,481.47105416126226L386,478.85725100269815L385.0317475000622,478L382,475.7163921967026L378.7541134381403,474L378,473.62488821450324L374,471.92318752874075L370,470.6063245803598L366.92195515637263,470L366,469.80609559139873L362,469.3988903483313L358,469.3988903483313L354,469.80609559139873L353.07804484362737,470L350,470.6063245803598L346,471.92318752874075L342.03910831499246,474L342,474.0206285577402L338,477.63886847886613L337.63886847886613,478L334.0206285577403,482L334,482.0391083149925L331.9231875287407,486L330.60632458035974,490L330,493.07804484362737L329.8060955388319,494L329.3988901889344,498L329.3988901889344,502L329.8060955388319,506L330,506.92195515637263L330.60632458035974,510L331.9231875287407,514L334,517.9608916850075L334.0206285577403,518L337.0723563174632,522L338,522.8250177138482L342,525.9619326310034L342.08334588413936,526L346,528.0510820744539L350,529.3679445342997L353.21357866933806,530L354,530.1651465180333L358,530.5723505658354L362,530.5723505658354L366,530.1651465180333Z"/></g><g><path fill="rgb(217, 203, 185)" stroke="rgb(167, 154, 137)" stroke-opacity="0.3" d="M710.7026925570757,34L714,32.2271031296204L716.4508774999496,30L718,27.74466148967987L718.8395173730488,26L719.7625145614437,22L719.7625145614437,18L718.8395173730488,14L718,12.25533851032013L716.4508774999496,10L714,7.772898645492759L710.7026915154139,6L710,5.7276825949781625L706,5.07873316118679L702,5.292665884898241L699.4162240706613,6L698,6.531584612819955L694,9.407906962388978L693.4646395439971,10L691.1851737324278,14L690.1201770538008,18L690.1201770538008,22L691.1851737324278,26L693.4646395439971,30L694,30.592093037611022L698,33.468415387180045L699.4162240706613,34L702,34.70733411510176L706,34.92126683881321L710,34.27231740502184ZM53.267796489019304,318L54,317.83562117547837L58,316.20752033559734L61.29777460863181,314L62,313.4132897505226L64.92412513097786,310L66,308.3262193950434L67.17499594459656,306L68.68562348787509,302L69.76508802256413,298L70,296.78848791158543L70.54300382894644,294L71.05816977524742,290L71.04248015752907,286L70.5091080832712,282L70,280.4826337763294L69.18175670911143,278L67.67759274033901,274L66,270.2246280686291L65.8939514410254,270L63.77737938252152,266L62,263.17506213527315L61.177209111212846,262L58,258.1490017595132L57.83051824880391,258L54,255.08638250314146L51.85898676018731,254L50,253.16734809331234L46,252.05026585465777L42,251.51702129895017L38,251.50876127917024L34,252.0401276754326L30,253.20661741664026L28.343729962724623,254L26,255.35657533605524L23.006037583207373,258L22,259.14606241637165L20.10275816205919,262L18.16217942169024,266L18,266.4417762755388L16.857123033743804,270L15.936974676286368,274L15.311401601875588,278L14.92956693478422,282L15.187165108089715,286L15.960020707096291,290L17.36369262461622,294L18,295.5987657940874L18.995339515737058,298L20.909328393062992,302L22,303.95928052066574L23.196095830095828,306L25.974434091931315,310L26,310.03196852742997L30,313.93115339347673L30.10092199391414,314L34,316.32439728936544L38,317.83287948789956L38.77665853100656,318L42,318.6306543651789L46,318.8895705140076L50,318.6446980892332ZM282.4659173704707,342L286,338.4659173704707L286.3136718172816,338L287.8651219180683,334L288.3595395210899,330L287.8651219180683,326L286.3136718172816,322L286,321.5340826295293L282.4659173704707,318L282,317.6863281827184L278,316.1348780819317L274,315.6404604789101L270,316.1348780819317L266,317.6863281827184L265.5340826295293,318L262,321.5340826295293L261.6863281827184,322L260.1348780819317,326L259.6404604789101,330L260.1348780819317,334L261.6863281827184,338L262,338.4659173704707L265.5340826295293,342L266,342.3136718172816L270,343.8651219180683L274,344.3595395210899L278,343.8651219180683L282,342.3136718172816ZM644.7761501296088,414L646,413.4866460094617L650,410.93336735503476L651.0403616831878,410L654,407.03409216120815L654.7921329871483,406L657.6288399485811,402L658,401.4529464133546L660.360322526873,398L662,395.61951575961615L663.220818535392,394L666,390.49800508946237L666.4340182209129,390L670,386.21041938106237L670.215476850544,386L674,383.1129838455247L676.1085727203741,382L678,380.72743146350894L682,379.3604671743922L686,379.1336262643924L690,378.6967662329736L694,378.26542307352213L696.3252983739413,378L698,377.76323826092084L702,377.12858643750036L706,376.1571968778925L710,374.70733451697083L711.4354300788515,374L714,372.2271031296204L716.4508774999496,370L718,367.4224669823919L718.6022844346234,366L719.7625145614437,362L720.4287098785583,358L720.6460267606528,354L720.4287098785583,350L719.7625145614437,346L718.6022840624488,342L718,341.0042731123257L715.3745145526359,338L714,335.54579801502916L712.7988733968682,334L711.671956123108,330L712.1724673102955,326L714,324.6725207733553L716.4508774999496,322L718,320.19572873093045L719.3061154038746,318L721.4925321450249,314L722,313.0075785632716L723.1629116580692,310L724.5811404485643,306L725.8710244308924,302L726,301.57908818587435L726.8557749673106,298L727.8211167831469,294L728.7609114593032,290L729.666333413395,286L730,284.78266131808726L730.848237119384,282L731.3982991210796,278L731.9575415114153,274L732.5187896734931,270L733.0201695154508,266L733.6234295236724,262L734,259.82496430046683L734.337987341593,258L735.1542264212993,254L736.4184466376848,250L737.6300834019745,246L738,244.879839759984L739.000745724778,242L740.3187223214428,238L741.7689978652895,234L742,233.40052568471077L743.8665416841962,230L745.9617714895198,226L746,225.93098584466088L748.0554846510256,222L749.8181826673525,218L750,217.55867626269747L751.4200658174037,214L752.7956606176991,210L753.6998949887484,206L754,204.23314179649248L754.392079563663,202L754.830136751132,198L755.0498561722216,194L755.0524943196215,190L754.8388077154357,186L754.3816185295877,182L754,180.01571106608753L753.6135535151034,178L752.5234995685543,174L750.897175224111,170L750,168.43002471792175L748.4296794615163,166L746,162.84358713300807L745.2423250414664,162L742,158.9424870118841L741.2258321689509,158L738,154.59584944348111L737.3609052496236,154L734,151.15582845061795L732.3804191007761,150L730,148.38775630246892L726,146.0501096692394L725.8710213646373,146L722,144.42748898544602L718,143.40061061957235L714,142.76106843435176L710,142.3948985936569L706,142.24656757173878L702,142.29546689231455L698,142.54827203564147L694,143.04135624527018L690,143.85500737929414L686,145.15115858358305L684.3569435213477,146L682,147.21324047967187L678,149.75937325116976L677.6614806906019,150L674,152.77388636769928L672.6266495501403,154L670,156.62093458626978L668.7693212807208,158L666,161.647248658333L665.7503775424077,162L663.3492132542797,166L662,168.72868301474205L661.3696587546793,170L659.874900245303,174L658.811557886585,178L658.0222185416126,182L658,182.15331246934613L657.3502973170516,186L656.8658833479715,190L656.5308987182076,194L656.3209014519515,198L656.2060440937495,202L656.1907154349827,206L656.222889975592,210L656.5290891589553,214L656.9441297501714,218L657.4939304079837,222L658,224.8759951199142L658.1791650152493,226L658.8750496067726,230L659.7086129202161,234L660.7021349708438,238L661.8267898491557,242L662,242.51294319475682L663.1142723055074,246L664.7016368570488,250L666,252.57957377605499L666.7012977776461,254L668.4485277280584,258L670,261.43547922115533L670.2676790059962,262L672.0322769691892,266L673.70296396222,270L674,270.73773659166324L675.2745540729849,274L676.7273050451871,278L678,281.8588137351464L678.0440674914153,282L679.7504387300822,286L681.152252738042,290L682,292.72688745222644L682.3783094821239,294L683.3698709180779,298L684.2044679799044,302L685.0340732003846,306L685.8762179117128,310L686,310.6086076164209L687.0147366721909,314L688.3153835198048,318L689.8379874194522,322L690,322.3957359875942L692.4666414135057,326L690.9463383222948,330L690,330.95745259869557L687.5379388091815,334L686,335.0514252393627L682.8279041144496,338L682,338.53589672191765L678,340.14383370924867L674,340.77481293856556L670,340.6334024012011L666,340.6976375834636L662,340.9255810910537L658,341.2999654152364L654,341.8227984976431L652.9876836230035,342L650,342.65955128198294L646,343.944969751644L642,345.2079479459561L639.2972038428893,346L638,346.4259826078175L634,348.23713821029764L631.1017149436158,350L630,350.7625888458273L626.389539561095,354L626,354.40119755141404L622,357.73952765603536L621.5902082602433,358L618,360.733227151601L615.8117773016432,362L614,363.39563440695474L610,365.6024788390346L606,365.308417466324L604.5273528880849,362L602.4186183566212,358L602,357.38174456096493L599.4865437519509,354L598,352.45833520658607L595.20736489091,350L594,349.1921425602435L590,347.08965998126456L587.1846256234097,346L586,345.647901430784L582,344.8780056319503L578,344.9271570064342L574,345.821659050284L573.60116358104,346L570,348.2533606836287L568.2533606836288,350L566,353.6351406120697L565.8379535402462,354L564.9726419347932,358L564.9726419347932,362L565.8379535402462,366L566,366.499033594005L567.6054709568245,370L570,373.4294487822725L570.6099678067909,374L574,376.2740434145371L578,377.8082002978513L579.0750021554974,378L582,378.41427914970603L586,378.58911504911475L590,378.7747390163264L594,379.00253021659455L598,379.33959723533894L602,380.00009454608494L605.6767704760387,382L606,382.12300325378703L608.7840240257556,386L610,388.7776576042589L610.3644491480268,390L611.6759579282843,394L613.1458678246634,398L614,399.9625588337352L614.9382784382898,402L617.2510156502715,406L618,407.03302379257815L620.6546635387981,410L622,411.19691586415496L626,413.99402780812744L626.0147022946712,414L630,415.3506274122422L634,415.9247708789466L638,415.8163052220511L642,415.0348291380937ZM63.18435154850984,422L66,419.50396892452704L67.10703244206044,418L68.77782207080165,414L69.3102715030069,410L68.77782207080165,406L67.10703244206044,402L66,400.49603107547296L63.18435154850984,398L62,397.28852187436627L58,396.0102471942978L54,395.76304412836066L50,396.51296228616246L46.76297098312452,398L46,398.51072358339906L42.87351236987922,402L42,403.7361416407104L41.19255611998287,406L40.73109886441242,410L41.19255611998287,414L42,416.2638583592896L42.87351236987922,418L46,421.48927641660094L46.76297098312452,422L50,423.48703771383754L54,424.23695587163934L58,423.9897528057022L62,422.71147812563373ZM565.082393026192,442L566,441.2959633202435L568.6992815402182,438L570,435.1531465828691L570.3949390560502,434L570.8496079809529,430L570.1518921615746,426L570,425.4685725098351L568.6992815402182,422L566.3644415841719,418L566,417.5596616179282L562,414.7838617441899L558.6252578508595,414L558,413.8940065511696L556.4517582542769,414L554,414.19927453847674L550,415.6238812578049L546.3286092912116,418L546,418.29447424165505L543.3007184597818,422L542,424.99767583090977L541.683255232962,426L541.1854038421224,430L541.6180200210132,434L542,435.1531465828691L543.3007184597818,438L546,441.2959633202435L546.917606973808,442L550,443.61377014323006L554,444.6026942258824L558,444.6026942258824L562,443.61377014323006ZM202.36485938793032,454L206,451.7466393163712L207.74663931637127,450L210,446.3648593879303L210.16204645975387,446L211.02735806520684,442L211.02735806520684,438L210.16204645975387,434L210,433.6351406120697L207.74663931637127,430L206,428.2533606836287L202.36485938793032,426L202,425.83795354024613L198,424.97264193479316L194,424.97264193479316L190,425.83795354024613L189.63514061206965,426L186,428.2533606836287L184.25336068362873,430L182,433.6351406120697L181.83795354024616,434L180.97264193479313,438L180.97264193479313,442L181.83795354024616,446L182,446.3648593879303L184.25336068362873,450L186,451.7466393163712L189.63514061206965,454L190,454.1620464597538L194,455.02735864411136L198,455.02735864411136L202,454.1620464597538ZM447.1843515485098,482L450,479.50396892452704L451.1070324420605,478L452.7778220708017,474L453.3102715030069,470L452.7778220708017,466L451.1070324420605,462L450,460.49603107547296L447.1843515485098,458L446,457.2885218743662L442,456.0102471942978L438,455.76304412836066L434,456.5129622861625L430.7629709831245,458L430,458.5107235833991L426.9499992734416,462L426,463.9661401436174L425.2688287788653,466L424.81354802470236,470L425.3140729734393,474L426,475.8131107712944L427.0579610546996,478L430,481.4892764166009L430.7629709831245,482L434,483.4870377138375L438,484.23695587163934L442,483.9897528057022L446,482.7114781256338ZM22.364859387930338,514L26,511.7466393163712L27.746639316371258,510L30,506.3648593879303L30.162046459753853,506L31.027358065206855,502L31.027358065206855,498L30.162046459753853,494L30,493.6351406120697L27.746639316371258,490L26,488.2533606836288L22.364859387930338,486L22,485.8379535402462L18,484.97264193479316L14,484.97264193479316L10,485.8379535402462L9.635140612069662,486L6,488.2533606836288L4.253360683628742,490L2,493.6351406120697L1.837953540246147,494L0.9726419347931454,498L0.9726419347931454,502L1.837953540246147,506L2,506.3648593879303L4.253360683628742,510L6,511.7466393163712L9.635140612069662,514L10,514.1620464597538L14,515.0273586441114L18,515.0273586441114L22,514.1620464597538ZM366.3648593879303,514L370,511.7466393163712L371.7466393163713,510L374,506.3648593879303L374.1669427949454,506L375.06670383647094,502L375.07701588576805,498L374.17195293001487,494L374,493.6351406120697L371.7466393163713,490L370,488.2533606836288L366.3648593879303,486L366,485.8379535402462L362,484.97264193479316L358,484.97264193479316L354,485.8379535402462L353.6351406120697,486L350,488.2533606836288L348.2533606836287,490L346,493.6351406120697L345.83795354024613,494L344.97264193479316,498L344.97264193479316,502L345.83795354024613,506L346,506.3648593879303L348.2533606836287,510L350,511.7466393163712L353.6351406120697,514L354,514.1620464597538L358,515.0273586441114L362,515.0273586441114L366,514.1620464597538Z"/></g><g><path fill="rgb(201, 203, 172)" stroke="rgb(152, 154, 125)" stroke-opacity="0.3" d="M712.1760078540457,294L714,292.53318657714755L715.890913356548,290L718,287.18788228324115L718.6184871365057,286L721.104600603605,282L722,278.91799789954644L722.2069524108504,278L723.1534406247306,274L724.100428717031,270L724.9524933970521,266L725.9440431687987,262L726,261.80479869977694L726.8862486404292,258L727.8770635844749,254L729.3496313815215,250L730,248.203838087005L730.8666340555959,246L732.5082180050093,242L734,238.02488841914538L734.0096794893708,238L735.8592663642386,234L737.6436812207819,230L738,229.2167544324475L739.5005398342932,226L741.2896487985537,222L742,220.22199493512448L743.2698348903166,218L745.323507848365,214L746,212.56498376131032L747.1513239258943,210L748.3774579400758,206L749.2760437403682,202L749.8266424776332,198L750,195.49812527459574L750.1078451582753,194L750.1022110931659,190L750,188.63886915676116L749.8072068769843,186L749.1931644416852,182L748.124655958562,178L746.556042756364,174L746,172.95414072275506L744.274716118966,170L742,167.27404458481317L741.2166335330966,166L738.311997462594,162L738,161.63573599821942L734.5670183810621,158L734,157.46345405965732L730,154.13265481863687L729.8332395458413,154L726,151.14605929528943L723.5063079822855,150L722,149.29626666037422L718,148.01266830107528L714,147.21324032101555L710,146.75552789239333L706,146.57011409395685L702,146.63123765543924L698,146.94724487821424L694,147.56360023527714L690,148.58066420712245L686.4474169051086,150L686,150.17216000219415L682,152.64151356764086L680.1468082331194,154L678,155.67572317806176L675.4179851286926,158L674,159.4108033492729L671.6557329568624,162L670,164.24669420067812L668.7791545394356,166L666.3620922093056,170L666,170.81453871790458L664.5583885537171,174L663.2459805270518,178L662.2837834805484,182L662,183.68116096456515L661.5594388173196,186L661.0235213495046,190L660.6789206694355,194L660.498829562022,198L660.4499881604969,202L660.5434925812217,206L660.718460252285,210L661.2437716871951,214L661.9053364933818,218L662,218.48682939147835L662.631805716872,222L663.5341986229234,226L664.5478438294084,230L665.7253365857609,234L666,234.86260827063904L666.9577857853308,238L668.2724028721369,242L669.9439185155932,246L670,246.12009120242027L672.0036505207186,250L674,253.11144746232992L674.6115014377384,254L676.8751134572893,258L678,260.0652751557578L679.0636119511114,262L681.076807190115,266L682,268.0764755031872L682.828790538905,270L684.4750908447511,274L685.9845158846576,278L686,278.04680700953463L687.7851094035655,282L690,285.2210396946936L690.7433661623875,286L693.7331256955389,290L694,290.3979777805757L697.6408888404071,294L698,294.4028554228539L702,296.8160043369105L706,297.2827685166313L710,295.86687954650284ZM54.90705477348584,302L58,298.38589732645886L58.222101127060824,298L59.98493813374361,294L61.180812235711315,290L61.39738511798478,286L60.77430783935007,282L58.93098380926283,278L58,276.187057858186L56.517882796077004,274L54,270.7140705081184L53.21842112245238,270L50,267.382873848494L47.20508368674183,266L46,265.4628108837544L42,264.70438651548153L38,264.9544847514816L34.89525116951239,266L34,266.3577519645798L30,269.5234664479696L29.618921742910658,270L27.143705057970692,274L26,276.6075273706485L25.54563569419905,278L24.63110377414175,282L24.820823833693183,286L25.78782625374737,290L26,290.4764429493452L27.924929654592006,294L30,297.35960472954577L30.54039825458328,298L34,301.63403520800574L34.52752125394893,302L38,304.15603162280587L42,305.4914367084897L46,305.7725372958175L50,304.95574661201454L54,302.82462161413787ZM640.7580565181997,394L642,393.63716839760565L646,391.0813543320719L647.1683025644049,390L650,387.37230030583004L651.0631900300234,386L654,383.3049414327527L655.1909317859635,382L656.835679600821,378L658,374.45624102137776L658.1662356319603,374L658.6138016816284,370L658,367.71459380507895L657.1902247439305,366L654,363.76178050141027L650,363.46141433730935L646,364.96430020108414L643.6298149126814,366L642,366.791607683121L638,368.8928403722426L636.6852928582898,370L634,372.5235705188699L632.8796909102639,374L630.1582252357907,378L630,378.26241857278353L628.3245561813867,382L629.3049371073765,386L630,388.5624474643283L630.6718201957607,390L634,393.75701459235273L634.772794978866,394L638,394.70227366995044Z"/></g><g><path fill="rgb(186, 203, 159)" stroke="rgb(138, 154, 112)" stroke-opacity="0.3" d="M706.7393280377015,274L710,272.07382194842126L711.6686112479492,270L714,266.7330271063933L714.3620571054827,266L716.6190011640163,262L718,259.6818609576395L718.7606111502138,258L720.6715432071808,254L722,252.09817450751984L723.1605646937319,250L725.2862204250216,246L726,244.72245709241253L727.2221533657762,242L728.9009668026795,238L730,235.6784114498215L730.8492362364973,234L732.917403546845,230L734,227.86382830183447L734.954335949755,226L736.9957758421489,222L738,219.77094643454552L738.817603895095,218L740.4896976169322,214L741.928045509732,210L742,209.712985394211L743.394189006389,206L744.5040159538353,202L745.1807746305219,198L745.5122556867988,194L745.4877025725755,190L745.0995847842852,186L744.2955041080462,182L742.9062413305462,178L742,176.12323399648665L741.2977253512596,174L739.4140555153882,170L738,167.90413770346237L736.6528710397951,166L734,162.78276634196305L733.302364556406,162L730,158.86621513480716L729.0413811234653,158L726,155.46802117599867L723.2371671245753,154L722,153.3453921985987L718,151.8784235518258L714,150.964791659664L710,150.44169210042645L706,150.22979089025844L702,150.2996463186765L698,150.66079750408682L694,151.36520310057574L690,152.5275620469899L686.74584852268,154L686,154.3318055883868L682,157.21271852101785L681.0395276982327,158L678,160.69503724519262L676.6897000529258,162L674,165.20367707667006L673.3775952972945,166L670.5540824168223,170L670,171.07952952437807L668.5039536703185,174L667.0126917336898,178L666,181.71080151016935L665.9154266179485,182L665.0719587952253,186L664.5043325202014,190L664.1573518815924,194L664.0029898715185,198L664.0061351517893,202L664.1833414639243,206L664.4683830855056,210L665.1597179313644,214L666,217.96208511358157L666.0075495386325,218L666.9231688108727,222L668.0630392681585,226L669.3272273640989,230L670,231.94443380830478L670.7745180105559,234L672.4416099170863,238L674,241.50102503235019L674.2377057155651,242L676.4536436056718,246L678,248.44322324795326L679.0542979697839,250L682,253.77548640824756L682.1852435819167,254L684.7069222857983,258L686,260.20522122958977L687.5006300339455,262L690,265.39334935393777L690.6319484900309,266L694,269.90769645700635L694.1253957292907,270L698,273.0747526850956L700.4610823820395,274L702,274.6771831793648L706,274.4459281943095Z"/></g><g><path fill="rgb(170, 202, 146)" stroke="rgb(122, 153, 100)" stroke-opacity="0.3" d="M702.4583701106495,258L706,257.2261305204719L710,254.71996512625782L710.6548560028957,254L714,251.37779151455555L715.3228706215576,250L718,247.11539659651987L718.8036998341023,246L721.7943256479684,242L722,241.71847633089783L724.1921253564645,238L726,235.2669533873402L726.6642743843195,234L728.8222117683782,230L730,227.75989829895974L730.9817100046571,226L733.2123043703187,222L734,220.42812662006128L735.2297276669572,218L737.0332254717248,214L738,211.60218692021L738.6679412569524,210L739.820987366077,206L740.6658767563775,202L741.1765614734114,198L741.4209862013798,194L741.3905125201499,190L741.0790027362406,186L740.4454890386804,182L739.3582246958017,178L738,174.53258419515095L737.7967767929792,174L735.7083903696036,170L734,167.7310548931036L732.6150082549558,166L730,163.1254115931455L728.959644927236,162L726,159.27399130937874L723.889238044413,158L722,156.88223722849838L718,155.27773979752487L714,154.27845478279968L712.0929627957356,154L710,153.66436011919836L706,153.3994827200665L702,153.48680268272304L698,153.93824200582657L697.7054786564286,154L694,154.71640493265687L690,155.9877348544195L686.0228169455752,158L686,158.0115302944421L682,161.21254373415863L681.1316736376457,162L678,165.32418504724913L677.4142100977876,166L674.275574933581,170L674,170.47501148907412L671.9843710252283,174L670.3549507772454,178L670,179.13518905715028L669.0621477791664,182L668.1724861661913,186L667.5836086651792,190L667.2370654133958,194L667.1041563103578,198L667.1486894503862,202L667.391669349085,206L667.7634080944406,210L668.5842353608031,214L669.579694988853,218L670,219.4579762443994L670.7667296370537,222L672.2378999109569,226L673.888007769263,230L674,230.25814596046365L675.7437239725243,234L677.8722915499344,238L678,238.24568975049812L680.0943648346308,242L682,244.8685732979107L682.8098892289075,246L685.8767833911953,250L686,250.1470856619469L690,253.3563879811822L691.2416723080014,254L694,256.0133408542226L698,257.6579596609474L701.1570821506582,258L702,258.10925566656624Z"/></g><g><path fill="rgb(155, 202, 133)" stroke="rgb(107, 153, 87)" stroke-opacity="1" d="M710.3344858365684,246L714,243.04823661891527L715.0273481617669,242L718,238.88786529992433L718.6677257100489,238L722,234.1725618590026L722.1195501200513,234L725.0544409672775,230L726,228.72013445209222L727.5638391826149,226L729.7990571331535,222L730,221.61181556886544L731.990964670245,218L733.8932905732527,214L734,213.76184358048533L735.7199087856627,210L736.9174675402301,206L737.7962783128993,202L738,200.49049084249083L738.3692942260707,198L738.6525168923034,194L738.6077742485578,190L738.2272522022388,186L738,184.77474520473405L737.5234951909451,182L736.3644209234754,178L734.6737070603727,174L734,172.82386246485265L732.352919303839,170L730,167.16917358508886L729.0290413394331,166L726,162.7681490997782L724.9369142808454,162L722,160.07756162397087L718,158.3660970377294L716.6849588391264,158L714,157.212717770599L710,156.52614950225768L706,156.24802845697374L702,156.33971459998L698,156.81372502314426L694,157.73825692058625L693.2665721847802,158L690,159.12342453658533L686,161.2836769121062L685.1395182374403,162L682,165.00562335563566L681.053438238288,166L678,169.53773592887654L677.6267375469615,170L675.1503985799583,174L674,176.56837200054005L673.3494284136608,178L671.9472510867765,182L671.019770268639,186L670.4109545991425,190L670.0613244940461,194L670,196.09451167303376L669.9378042696374,198L670,200.82470295294166L670.0239203787862,202L670.3316665953107,206L670.7987266315623,210L671.7892893947715,214L673.0045479347574,218L674,220.73696099542008L674.4794193559865,222L676.2752573503503,226L678,229.45674058168464L678.2921020320516,230L680.5728475214055,234L682,236.29419117869185L683.1574266765638,238L685.8314331716522,242L686,242.2276862534631L690,245.75137063796035L690.454061917902,246L694,247.99397747453287L698,249.12309190189973L702,249.25075817857532L706,248.3610686069743L710,246.28289482254178Z"/></g><g><path fill="rgb(139, 202, 120)" stroke="rgb(91, 153, 75)" stroke-opacity="0.3" d="M703.5300959140351,242L706,241.42091901379024L710,239.3507213532926L711.6046574987806,238L714,236.31453378903012L716.5982629092781,234L718,232.85085745922441L720.6802688245981,230L722,228.6512513182135L724.0262005364465,226L726,223.47225166159762L726.8845899021593,222L729.0603097808474,218L730,216.07221006727838L731.0829612446419,214L732.9756164718586,210L734,206.70667797279094L734.2307394238597,206L735.241238319229,202L735.8476689720278,198L736.1305450129289,194L736.0772279531775,190L735.6786469778477,186L734.8830690702617,182L734,179.33120859116266L733.5753527542922,178L731.8024503305987,174L730,171.1517147880699L729.3020625645629,170L726,166.14619243587865L725.8181394527033,166L722,163.1048467322263L719.7947299841926,162L718,161.15198141259359L714,159.9084269786287L710,159.19643007764432L706,158.90800859279864L702,159.00309046493715L698,159.49465619193765L694,160.4534307162975L690.0830013432004,162L690,162.03417329353053L686,164.4582742142789L684.4012476297366,166L682,168.51748288125222L680.6889242291128,170L678.0921208886934,174L678,174.18556903518336L676.0976982179404,178L674.6506269524164,182L674,184.69340851834244L673.6648780420511,186L672.9801797705626,190L672.6031328526645,194L672.5036420886565,198L672.6431797941655,202L673.0598996688618,206L673.6762425399246,210L674,211.11295497294412L674.8506326596116,214L676.2701256481662,218L678,221.93187527777638L678.0316485439795,222L680.1558004167641,226L682,229.13906878470033L682.5500380711223,230L685.2715769054864,234L686,235.02298303859055L689.3280337832825,238L690,238.64963762576713L694,241.090329851624L697.0947759496983,242L698,242.2630598359264L702,242.36504813283284Z"/></g><g><path fill="rgb(124, 202, 107)" stroke="rgb(75, 153, 61)" stroke-opacity="0.3" d="M709.4472385909093,234L710,233.7785624046187L714,231.1716644328729L715.4087872130217,230L718,227.9856528541224L719.9467588881042,226L722,224.02756125770264L723.6280419445732,222L726,218.77553248777502L726.4390921619809,218L728.5413476588714,214L730,210.8367398162244L730.4161357756745,210L731.8052960039175,206L732.8248584169471,202L733.4354555680238,198L733.7174979658292,194L733.6569335781957,190L733.243653327114,186L732.4240894953647,182L731.0298347249827,178L730,175.87431430832862L729.1566074149672,174L726.6188257404025,170L726,169.27777403589207L722,166.05423413453664L721.9026244795282,166L718,163.86390043846404L714,162.49694041673067L711.4973014302271,162L710,161.7029494388301L706,161.3733251679743L702,161.48198996139064L698.3037763592484,162L698,162.04210805713177L694,163.0960288038527L690,164.8351308409295L688.203568589332,166L686,167.46424764066856L683.5631971018039,170L682,172.19736131148488L680.7597585306826,174L678.7037118167076,178L678,179.8288524649825L677.1418357581961,182L676.0759656704477,186L675.3962679388748,190L675.0352139120087,194L674.9654672504583,198L675.1518499174827,202L675.6418014964606,206L676.3632682559518,210L677.7651325228768,214L678,214.59546482534608L679.3970697717928,218L681.4189549177241,222L682,222.99726924748126L683.8969622428046,226L686,229.09161490294383L686.9711426843462,230L690,232.77575663730164L692.2012771039778,234L694,235.04187587565758L698,236.20436678715976L702,236.35222538905066L706,235.55364889509292Z"/></g><g><path fill="rgb(108, 202, 94)" stroke="rgb(56, 152, 47)" stroke-opacity="0.3" d="M708.0066784765822,230L710,229.26153151809098L714,226.80265580188427L715.0145473371678,226L718,223.83971398933522L719.9081260250452,222L722,219.88267849411585L723.4317828028818,218L726,214.31384013055953L726.1682035139929,214L728.1903723771923,210L729.4972065197489,206L730,203.95035768479045L730.5394801887593,202L731.2170179663823,198L731.5267514557481,194L731.4524711908704,190L730.9824765817697,186L730.0562865157142,182L730,181.8464374933257L728.721067218242,178L726.7923484047047,174L726,172.78629906286733L723.4702377281674,170L722,168.780827026677L718,166.50116803434548L716.646072635823,166L714,165.0056229167409L710,164.1251382469415L706,163.76846427904974L702,163.88604622827688L698,164.49393726466258L694,165.67959754008697L693.2994792727579,166L690,167.49500367320184L686.4256633709165,170L686,170.38054373504846L683.3021496368603,174L682,176.39337070420834L681.1288987726597,178L679.4800683529917,182L678.4114221478885,186L678,188.4189795379265L677.7115611442864,190L677.3334239411097,194L677.2893976369858,198L677.5416630020733,202L678,205.0639530729831L678.1356681681026,206L678.9549142802084,210L680.5127303006798,214L682,217.17423772603502L682.4069768539559,218L684.6806827276439,222L686,223.95289334957022L688.1707183312442,226L690,227.72445735370349L693.9477713540871,230L694,230.030778450566L698,231.28774115518843L702,231.52236496436802L706,230.82683996656067Z"/></g><g><path fill="rgb(93, 202, 81)" stroke="rgb(32, 152, 32)" stroke-opacity="0.3" d="M707.8963209380812,226L710,225.30025380598352L714,223.05417684390574L715.424825628771,222L718,220.0588553819822L720.0362299026316,218L722,215.91692878844515L723.3869305831123,214L726,210.057728101667L726.0294010265069,210L727.4704181209004,206L728.5263132780558,202L729.1547917431393,198L729.4396214566447,194L729.3653940869523,190L728.9209558339735,186L728.0494791113757,182L726.5731604326053,178L726,176.8543815372805L724.0754029155038,174L722,171.74153436336138L719.7172967974021,170L718,168.97223407358481L714,167.3949211166028L710,166.49300865125866L706,166.12831663163018L702,166.24802821714982L698,166.86667553881566L694,168.07117519957148L690.1016200603269,170L690,170.06206173083626L686,173.6454346746981L685.735716051915,174L683.4191820779249,178L682,181.38654782060874L681.7379120122929,182L680.5698880705028,186L679.8445462591028,190L679.4889390771382,194L679.4771984610064,198L679.7759071579715,202L680.4511504773056,206L681.4329463419756,210L682,211.33695591077958L683.1726582266349,214L685.281720280984,218L686,219.18680220830237L688.6325489380331,222L690,223.2988135101741L694,225.67006337719556L695.0626944368765,226L698,226.9836739836254L702,227.31115474154495L706,226.719352138947Z"/></g><g><path fill="rgb(77, 202, 68)" stroke="rgb(0, 152, 8)" stroke-opacity="1" d="M709.3612995273048,222L710,221.78833831009598L714,219.51573819955382L715.9747963235926,218L718,216.41864051308397L720.2912007535647,214L722,212.10876927487584L723.457005468312,210L725.3323123113463,206L726,204.12019506533056L726.5972593050053,202L727.2824080667873,198L727.5907412124786,194L727.5050466883615,190L727.0128387906489,186L726.0514621194958,182L726,181.86424435679626L724.074096026324,178L722,175.05551887596022L720.9724315900696,174L718,171.66544129272972L714.7157858862558,170L714,169.70582495106441L710,168.71053508933161L706,168.3065625577214L702,168.43560467263777L698,169.11346738648254L695.2731290725366,170L694,170.49765286129045L690,172.9805383057214L688.8738320169704,174L686,177.3741823565909L685.6338487466542,178L683.8248165676889,182L682.6669975304505,186L682,189.74499995090375L681.9515873602081,190L681.5861586633163,194L681.6050400037257,198L681.973234990525,202L682,202.14193709981987L682.7127195859268,206L683.7869393086802,210L685.7453807484613,214L686,214.46622363541638L688.9441624107202,218L690,219.1193036503294L694,221.80892930530342L694.5250758696965,222L698,223.21564260114036L702,223.61909935702107L706,223.1412225066884Z"/></g><g><path fill="rgb(62, 202, 55)" stroke="rgb(0, 152, 0)" stroke-opacity="0.3" d="M710.6714234600873,218L714,216.09015505038934L716.6375063966043,214L718,212.9030433855146L720.6440362751667,210L722,207.83892153636452L722.9000082953808,206L724.3942156767497,202L725.2860034156216,198L725.6866574846989,194L725.5676618201559,190L724.9084076425393,186L723.6226428359588,182L722,178.96154412274748L721.3078390430131,178L718,174.61085086289015L717.1057844348519,174L714,172.32373180477106L710,171.06729436912505L706,170.55660441359714L702,170.71433924938069L698,171.55677290252746L694,173.19903966508838L692.7478722953215,174L690,176.20889409213132L688.4507908096017,178L686,181.75848392447134L685.8892729414762,182L684.6436345140473,186L683.8887434052607,190L683.5479981248619,194L683.598041806014,198L684.0087675021673,202L684.8653663572078,206L686,209.68577390647437L686.1406021808688,210L689.1468354390031,214L690,215.00192176380938L693.9738593483205,218L694,218.01822767506866L698,219.6276654830935L702,220.1472386713508L706,219.72919781830535L710,218.38864060766002Z"/></g><g><path fill="rgb(46, 201, 42)" stroke="rgb(0, 151, 0)" stroke-opacity="0.3" d="M711.8624561179117,214L714,212.76544795870484L717.3933745554849,210L718,209.30146210082773L720.1316581160462,206L722,202.17814113186864L722.0682980987983,202L723.0200189784896,198L723.4423909651778,194L723.3039477744807,190L722.581884044531,186L722,184.2902871694642L720.9783020811219,182L718.0186045360383,178L718,177.98093814528443L714,175.16354303482188L711.1527442486364,174L710,173.6175061932915L706,173.05742966077023L702,173.22191153077506L698.553555288331,174L698,174.1497942941598L694,176.21630993459289L691.8193752464922,178L690,179.9163033562473L688.5927595038771,182L686.8241165800828,186L686,189.09218708673848L685.8219042738259,190L685.4765557664986,194L685.5603108075015,198L686,201.66017636432093L686.0566643908113,202L687.3683838966488,206L689.2695305245858,210L690,210.94405040513544L693.6159174718398,214L694,214.29855742009232L698,216.11161293280617L702,216.752186632294L706,216.40029090354022L710,215.08796256897364Z"/></g><g><path fill="rgb(31, 201, 29)" stroke="rgb(0, 151, 0)" stroke-opacity="0.3" d="M713.1894915580747,210L714,209.34296057776646L716.9191718969086,206L718,204.41981184818496L719.2293389958136,202L720.4629531065526,198L721.0066059613088,194L720.806884040062,190L719.8249524951782,186L718,182.1430928436554L717.9038701523091,182L714,178.37095652747462L713.3317960641767,178L710,176.55033461148605L706,175.82913249392038L702,176.0258191775426L698,177.15538655499822L696.427532501508,178L694,179.6391734888946L691.7507833704633,182L690,184.7965627103577L689.4503525383268,186L688.3351773496634,190L687.8728263604937,194L688.0338145465397,198L688.7804405029543,202L690,205.3273476020583L690.3522331053441,206L693.2531299778466,210L694,210.6424549249266L698,212.66270646190793L702,213.42808490313723L706,213.14737322314147L710,211.87010421774437Z"/></g><g><path fill="rgb(15, 201, 16)" stroke="rgb(0, 151, 0)" stroke-opacity="0.3" d="M705.2871579911814,210L706,209.9488017306884L710,208.1998867744328L712.7083721331674,206L714,204.70228487045915L715.8715864568591,202L717.5608875560569,198L718,195.62547856933645L718.2263229489997,194L718,190.12206972281683L717.9903499314307,190L716.5535509183911,186L714,182.2944868614928L713.6712785605106,182L710,179.8830457786355L706,178.92558470685856L702,179.16217653277567L698,180.60002529281655L695.9686507024118,182L694,184.02468379814144L692.7342497552429,186L691.1977284416754,190L690.5870828518576,194L690.8707456040711,198L692.0098389443385,202L694,205.58908578571453L694.3718854449602,206L698,208.95021896644602L701.2103386799461,210L702,210.17396927091346Z"/></g><g><path fill="rgb(0, 201, 3)" stroke="rgb(0, 151, 0)" stroke-opacity="1" d="M711.3300742230875,202L713.8078970135225,198L714,197.28075855855855L714.6021653502822,194L714.2243279541796,190L714,189.41160242870285L711.9532513142608,186L710,184.23878025736443L706,182.69732539416708L702,183.02263516924967L698,185.18657970042506L697.2082912912842,186L694.8723786366902,190L694,193.94082008508852L693.9910701012724,194L694,194.10028360361002L694.5301793963331,198L696.4842132392547,202L698,203.66142766165814L702,205.6024503479111L706,205.42273473192762L710,203.33631239259688Z"/></g><circle cx="705" cy="260" fill="black" r="1"/><circle cx="16" cy="500" fill="black" r="1"/><circle cx="360" cy="500" fill="black" r="1"/><circle cx="274" cy="330" fill="black" r="1"/><circle cx="705" cy="300" fill="black" r="1"/><circle cx="556" cy="430" fill="black" r="1"/><circle cx="705" cy="360" fill="black" r="1"/><circle cx="196" cy="440" fill="black" r="1"/><circle cx="439" cy="470" fill="black" r="1"/><circle cx="55" cy="410" fill="black" r="1"/><circle cx="705" cy="190" fill="black" r="1"/><circle cx="705" cy="230" fill="black" r="1"/><circle cx="705" cy="20" fill="black" r="1"/><circle cx="635" cy="400" fill="black" r="1"/><circle cx="580" cy="360" fill="black" r="1"/><circle cx="705" cy="190" fill="black" r="1"/><circle cx="705" cy="200" fill="black" r="1"/><circle cx="705" cy="190" fill="black" r="1"/><circle cx="705" cy="190" fill="black" r="1"/><circle cx="705" cy="190" fill="black" r="1"/><circle cx="689" cy="230" fill="black" r="1"/><circle cx="650" cy="360" fill="black" r="1"/><circle cx="705" cy="180" fill="black" r="1"/><circle cx="39" cy="270" fill="black" r="1"/><circle cx="47" cy="300" fill="black" r="1"/></g><g id="labels"/><g id="axis"><g transform="translate(0,500)" fill="none" font-size="10" font-family="sans-serif" text-anchor="middle"><path class="domain" stroke="currentColor" d="M0,6V0H705V6"/><g class="tick" opacity="1" transform="translate(0,0)"><line stroke="currentColor" y2="6"/><text fill="currentColor" y="9" dy="0.71em">0.1</text></g><g class="tick" opacity="1" transform="translate(78,0)"><line stroke="currentColor" y2="6"/><text fill="currentColor" y="9" dy="0.71em">0.2</text></g><g class="tick" opacity="1" transform="translate(157,0)"><line stroke="currentColor" y2="6"/><text fill="currentColor" y="9" dy="0.71em">0.3</text></g><g class="tick" opacity="1" transform="translate(235,0)"><line stroke="currentColor" y2="6"/><text fill="currentColor" y="9" dy="0.71em">0.4</text></g><g class="tick" opacity="1" transform="translate(313,0)"><line stroke="currentColor" y2="6"/><text fill="currentColor" y="9" dy="0.71em">0.5</text></g><g class="tick" opacity="1" transform="translate(392,0)"><line stroke="currentColor" y2="6"/><text fill="currentColor" y="9" dy="0.71em">0.6</text></g><g class="tick" opacity="1" transform="translate(470,0)"><line stroke="currentColor" y2="6"/><text fill="currentColor" y="9" dy="0.71em">0.7</text></g><g class="tick" opacity="1" transform="translate(548,0)"><line stroke="currentColor" y2="6"/><text fill="currentColor" y="9" dy="0.71em">0.8</text></g><g class="tick" opacity="1" transform="translate(627,0)"><line stroke="currentColor" y2="6"/><text fill="currentColor" y="9" dy="0.71em">0.9</text></g><g class="tick" opacity="1" transform="translate(705,0)"><line stroke="currentColor" y2="6"/><text fill="currentColor" y="9" dy="0.71em">1.0</text></g><text x="705" dy="-5" text-anchor="end" style="font-family: Arial, sans-serif; font-size: 12px; fill: rgb(123, 123, 123); font-weight: bold;">Personal_Satisfaction_Rate</text></g><g fill="none" font-size="10" font-family="sans-serif" text-anchor="end"><path class="domain" stroke="currentColor" d="M-6,500H0V0H-6"/><g class="tick" opacity="1" transform="translate(0,500)"><line stroke="currentColor" x2="-6"/><text fill="currentColor" x="-9" dy="0.32em">0</text></g><g class="tick" opacity="1" transform="translate(0,450)"><line stroke="currentColor" x2="-6"/><text fill="currentColor" x="-9" dy="0.32em">5</text></g><g class="tick" opacity="1" transform="translate(0,400)"><line stroke="currentColor" x2="-6"/><text fill="currentColor" x="-9" dy="0.32em">10</text></g><g class="tick" opacity="1" transform="translate(0,350)"><line stroke="currentColor" x2="-6"/><text fill="currentColor" x="-9" dy="0.32em">15</text></g><g class="tick" opacity="1" transform="translate(0,300)"><line stroke="currentColor" x2="-6"/><text fill="currentColor" x="-9" dy="0.32em">20</text></g><g class="tick" opacity="1" transform="translate(0,250)"><line stroke="currentColor" x2="-6"/><text fill="currentColor" x="-9" dy="0.32em">25</text></g><g class="tick" opacity="1" transform="translate(0,200)"><line stroke="currentColor" x2="-6"/><text fill="currentColor" x="-9" dy="0.32em">30</text></g><g class="tick" opacity="1" transform="translate(0,150)"><line stroke="currentColor" x2="-6"/><text fill="currentColor" x="-9" dy="0.32em">35</text></g><g class="tick" opacity="1" transform="translate(0,100)"><line stroke="currentColor" x2="-6"/><text fill="currentColor" x="-9" dy="0.32em">40</text></g><g class="tick" opacity="1" transform="translate(0,50)"><line stroke="currentColor" x2="-6"/><text fill="currentColor" x="-9" dy="0.32em">45</text></g><g class="tick" opacity="1" transform="translate(0,0)"><line stroke="currentColor" x2="-6"/><text fill="currentColor" x="-9" dy="0.32em">50</text></g><text x="4" text-anchor="start" dominant-baseline="hanging" style="font-family: Arial, sans-serif; font-size: 12px; fill: rgb(123, 123, 123); font-weight: bold;">Flag_Score</text></g></g></g></svg>